<?xml version="1.0" standalone="no"?>
<!DOCTYPE svg PUBLIC "-//W3C//DTD SVG 20010904//EN"
 "http://www.w3.org/TR/2001/REC-SVG-20010904/DTD/svg10.dtd">
<svg version="1.0" xmlns="http://www.w3.org/2000/svg"
 width="436.000000pt" height="191.000000pt" viewBox="0 0 436.000000 191.000000"
 preserveAspectRatio="xMidYMid meet">
<metadata>
Created by potrace 1.16, written by Peter Selinger 2001-2019
</metadata>
<g transform="translate(0.000000,191.000000) scale(0.100000,-0.100000)"
fill="#000000" stroke="none">
<path d="M907 1780 c-189 -34 -342 -115 -467 -246 -81 -84 -97 -107 -148 -209
-53 -106 -72 -173 -81 -296 -26 -337 137 -634 439 -797 131 -70 201 -87 380
-87 135 0 165 4 230 24 87 27 172 68 251 122 55 37 199 182 199 200 0 5 -30
-16 -67 -47 -162 -137 -404 -196 -599 -145 -301 78 -503 318 -521 616 -13 223
56 397 219 550 201 191 520 233 770 103 44 -23 104 -63 133 -90 29 -26 56 -48
60 -48 12 0 -37 61 -96 121 -100 99 -231 173 -374 210 -81 22 -258 32 -328 19z"/>
<path d="M949 1124 c-23 -25 -24 -30 -27 -217 -2 -115 -7 -197 -14 -204 -8
-10 -1 -13 32 -13 36 0 41 3 36 17 -10 26 -7 374 3 411 12 39 3 41 -30 6z"/>
<path d="M2876 1088 c-14 -34 -14 -39 20 -119 52 -122 50 -119 74 -186 12 -35
20 -69 16 -78 -4 -12 5 -15 51 -15 48 0 54 2 40 13 -9 6 -25 37 -37 67 -11 30
-25 64 -30 75 -5 11 -23 56 -40 100 -77 195 -74 191 -94 143z"/>
<path d="M1289 1023 c-3 -297 4 -333 64 -333 17 0 39 5 47 10 12 8 11 10 -6
10 -47 0 -54 24 -54 198 l0 162 -25 0 c-23 0 -25 -4 -26 -47z"/>
<path d="M1487 971 c-17 -6 -17 -8 -3 -20 13 -11 16 -34 16 -118 0 -57 -5
-113 -10 -124 -10 -17 -7 -19 31 -19 33 0 40 3 35 16 -3 9 -6 74 -6 145 0 127
0 129 -22 128 -13 0 -31 -4 -41 -8z"/>
<path d="M1589 960 l-24 -21 23 11 c31 15 68 5 83 -21 11 -22 15 -211 4 -229
-4 -6 7 -10 27 -10 l33 0 -3 118 c-4 140 -16 165 -79 170 -29 2 -46 -3 -64
-18z"/>
<path d="M1876 959 c-54 -42 -72 -123 -42 -192 21 -50 50 -70 109 -75 47 -4
57 -1 83 22 l29 26 -38 -15 c-47 -19 -93 -9 -118 25 -37 51 -30 169 12 211 27
27 0 25 -35 -2z"/>
<path d="M2170 958 c-11 -12 -20 -34 -20 -49 0 -29 5 -33 110 -112 47 -34 61
-67 40 -93 -19 -22 6 -18 30 6 41 41 17 99 -64 150 -65 41 -86 72 -68 101 17
26 -2 24 -28 -3z"/>
<path d="M3166 971 c-18 -7 -18 -8 -3 -14 15 -6 17 -28 17 -202 0 -120 -4
-204 -11 -216 -10 -19 -8 -20 27 -17 l37 3 -2 92 c-2 83 0 92 15 86 15 -6 15
-4 0 20 -13 20 -17 46 -16 119 2 143 3 138 -22 137 -13 0 -32 -4 -42 -8z"/>
<path d="M3285 975 c6 -2 23 -6 38 -9 42 -10 67 -59 67 -133 0 -64 -13 -112
-33 -125 -21 -13 -2 -17 23 -5 41 21 70 74 70 129 0 95 -48 149 -132 147 -23
0 -38 -2 -33 -4z"/>
<path d="M3536 971 c-18 -7 -18 -8 -3 -14 15 -6 17 -28 17 -202 0 -116 -4
-204 -10 -216 -10 -17 -7 -19 30 -19 35 0 41 3 36 18 -4 15 -9 115 -7 150 1 6
8 12 16 12 14 0 14 3 -1 24 -12 20 -15 50 -15 140 1 114 1 116 -21 115 -13 0
-32 -4 -42 -8z"/>
<path d="M3700 962 c46 -23 60 -53 60 -137 0 -51 -5 -78 -19 -101 -19 -31 -19
-32 0 -27 52 14 96 112 79 174 -22 77 -57 109 -122 109 l-33 0 35 -18z"/>
<path d="M2444 945 c-24 -37 -11 -71 43 -108 92 -64 105 -78 101 -109 -3 -15
-1 -28 3 -28 17 0 39 33 39 59 0 34 -28 65 -98 110 -50 32 -72 67 -57 90 14
23 -16 9 -31 -14z"/>
</g>
</svg>
